<svg xmlns="http://www.w3.org/2000/svg" width="256" height="256" viewBox="0 0 256 256">
<rect width="256" height="256" fill="#4A5568" rx="20" ry="20"/>
<circle cx="128" cy="128" r="96" fill="#2D3748" stroke="#A0AEC0" stroke-width="6"/>
<path d="M80,128 C88,100 100,85 128,85 C156,85 168,100 176,128 C168,156 156,171 128,171 C100,171 88,156 80,128 Z" fill="none" stroke="#4FD1C5" stroke-width="8"/>
<circle cx="128" cy="128" r="32" fill="#2D3748" stroke="#4FD1C5" stroke-width="4"/>
<path d="M200,60 L210,50 M46,205 L56,195 M200,195 L210,205 M46,50 L56,60" stroke="#A0AEC0" stroke-width="4"/>
<path d="M100,100 L70,70 M156,156 L186,186 M156,100 L186,70 M100,156 L70,186" stroke="#4FD1C5" stroke-width="4"/>
<circle cx="128" cy="128" r="8" fill="#4FD1C5"/>
</svg>